<svg xmlns="http://www.w3.org/2000/svg" viewBox="0 0 380 230" role="img" aria-label="곡선 x–t 그래프에서 두 순간의 접선 기울기" style="max-width:100%;height:auto;display:block;color:#443E5C"><defs><marker id="ah" viewBox="0 0 10 10" refX="9" refY="5" markerWidth="7" markerHeight="7" orient="auto-start-reverse"><path d="M0 0 L10 5 L0 10 Z" fill="currentColor"/></marker><marker id="ahs" viewBox="0 0 10 10" refX="1" refY="5" markerWidth="7" markerHeight="7" orient="auto-start-reverse"><path d="M10 0 L0 5 L10 10 Z" fill="currentColor"/></marker></defs><line x1="60.0" y1="180.0" x2="334.0" y2="180.0" stroke="currentColor" stroke-width="1.4" stroke-linecap="round" marker-end="url(#ah)" opacity="1"/><line x1="60.0" y1="180.0" x2="60.0" y2="16.0" stroke="currentColor" stroke-width="1.4" stroke-linecap="round" marker-end="url(#ah)" opacity="1"/><text x="342.0" y="180.0" text-anchor="start" dominant-baseline="middle" fill="currentColor" style="font-family:'IBM Plex Sans KR','Apple SD Gothic Neo',sans-serif;font-size:12px;font-weight:400;font-style:italic" opacity="1">t</text><text x="60.0" y="6.0" text-anchor="middle" dominant-baseline="middle" fill="currentColor" style="font-family:'IBM Plex Sans KR','Apple SD Gothic Neo',sans-serif;font-size:12px;font-weight:400;font-style:italic" opacity="1">x</text><line x1="112.0" y1="177.0" x2="112.0" y2="183.0" stroke="currentColor" stroke-width="1.2" stroke-linecap="round" opacity="1"/><text x="112.0" y="194.0" text-anchor="middle" dominant-baseline="middle" fill="currentColor" style="font-family:'IBM Plex Sans KR','Apple SD Gothic Neo',sans-serif;font-size:11px;font-weight:400" opacity="1">t₁</text><line x1="242.0" y1="177.0" x2="242.0" y2="183.0" stroke="currentColor" stroke-width="1.2" stroke-linecap="round" opacity="1"/><text x="242.0" y="194.0" text-anchor="middle" dominant-baseline="middle" fill="currentColor" style="font-family:'IBM Plex Sans KR','Apple SD Gothic Neo',sans-serif;font-size:11px;font-weight:400" opacity="1">t₂</text><polyline points="60.0,180.0 66.5,169.7 73.0,160.0 79.5,151.1 86.0,142.7 92.5,135.0 99.0,127.7 105.5,121.0 112.0,114.7 118.5,108.9 125.0,103.4 131.5,98.4 138.0,93.7 144.5,89.3 151.0,85.2 157.5,81.4 164.0,77.8 170.5,74.5 177.0,71.5 183.5,68.6 190.0,65.9 196.5,63.5 203.0,61.2 209.5,59.0 216.0,57.0 222.5,55.2 229.0,53.4 235.5,51.8 242.0,50.3 248.5,48.9 255.0,47.6 261.5,46.4 268.0,45.3 274.5,44.2 281.0,43.2 287.5,42.3 294.0,41.5 300.5,40.7 307.0,39.9 313.5,39.3 320.0,38.6" fill="none" stroke="currentColor" stroke-width="2.2" stroke-linejoin="round" opacity="1"/><line x1="73.0" y1="151.0" x2="151.0" y2="78.4" stroke="#E07A95" stroke-width="2" stroke-linecap="round" opacity="1" style="color:#E07A95"/><circle cx="112.0" cy="114.7" r="3.5" fill="#E07A95" stroke="none" stroke-width="1.6" opacity="1"/><line x1="112.0" y1="180.0" x2="112.0" y2="114.7" stroke="currentColor" stroke-width="1" stroke-linecap="round" stroke-dasharray="3 3" opacity="0.7"/><line x1="203.0" y1="59.0" x2="281.0" y2="41.6" stroke="#8A84E2" stroke-width="2" stroke-linecap="round" opacity="1" style="color:#8A84E2"/><circle cx="242.0" cy="50.3" r="3.5" fill="#8A84E2" stroke="none" stroke-width="1.6" opacity="1"/><line x1="242.0" y1="180.0" x2="242.0" y2="50.3" stroke="currentColor" stroke-width="1" stroke-linecap="round" stroke-dasharray="3 3" opacity="0.7"/><text x="117.2" y="42.0" text-anchor="start" dominant-baseline="middle" fill="#E07A95" style="font-family:'IBM Plex Sans KR','Apple SD Gothic Neo',sans-serif;font-size:11px;font-weight:600" opacity="1">가파름 → 빠르다</text><text x="205.6" y="81.0" text-anchor="start" dominant-baseline="middle" fill="#8A84E2" style="font-family:'IBM Plex Sans KR','Apple SD Gothic Neo',sans-serif;font-size:11px;font-weight:600" opacity="1">완만함 → 느리다</text></svg>